<?xml version="1.0" standalone="no"?>
<!DOCTYPE svg PUBLIC "-//W3C//DTD SVG 20010904//EN"
 "http://www.w3.org/TR/2001/REC-SVG-20010904/DTD/svg10.dtd">
<svg version="1.0" xmlns="http://www.w3.org/2000/svg"
 width="765.000000pt" height="726.000000pt" viewBox="0 0 765.000000 726.000000"
 preserveAspectRatio="xMidYMid meet">

<g transform="translate(0.000000,726.000000) scale(0.100000,-0.100000)"
fill="#000000" stroke="none">
<path d="M0 3630 l0 -3630 3825 0 3825 0 0 3630 0 3630 -3825 0 -3825 0 0
-3630z m1006 252 c91 -47 140 -124 153 -245 11 -95 37 -152 94 -204 47 -43
121 -73 182 -73 96 0 203 69 244 156 12 25 26 82 31 126 21 179 132 278 300
266 144 -11 248 -121 250 -264 1 -161 -96 -263 -270 -285 -175 -22 -256 -103
-278 -279 -13 -96 -33 -141 -86 -194 -127 -127 -359 -90 -436 70 -12 24 -26
79 -31 121 -22 176 -108 264 -279 283 -173 20 -270 119 -270 274 1 129 71 228
190 267 44 15 161 4 206 -19z m1545 3 c66 -50 64 -36 69 -423 l5 -354 28 -24
c27 -23 32 -24 208 -24 160 0 184 -2 219 -20 88 -45 99 -174 18 -216 -41 -21
-696 -21 -738 1 -61 32 -61 30 -58 529 3 443 4 455 24 483 40 54 83 75 144 71
34 -2 66 -11 81 -23z m1271 14 c144 -31 306 -159 368 -291 77 -165 77 -341 -1
-505 -61 -128 -220 -253 -357 -282 -132 -28 -297 -5 -398 54 -63 37 -155 125
-193 184 -87 135 -109 329 -55 486 55 163 214 309 380 349 73 18 186 20 256 5z
m1110 -4 c132 -27 213 -98 249 -215 42 -140 11 -278 -82 -365 -90 -84 -90 -99
1 -244 39 -62 73 -126 77 -142 8 -42 -14 -85 -52 -103 -38 -18 -123 -21 -158
-5 -14 6 -65 77 -132 184 -67 107 -117 177 -132 184 -39 18 -71 13 -105 -18
l-33 -29 -5 -142 c-5 -140 -5 -142 -33 -166 -24 -21 -38 -24 -103 -24 -70 0
-78 2 -105 29 l-29 29 0 495 0 495 31 26 31 26 256 0 c184 0 276 -4 324 -15z
m1271 -18 c43 -26 91 -77 116 -124 6 -13 16 -60 22 -105 12 -103 46 -176 102
-222 48 -39 120 -66 176 -66 94 0 189 -55 238 -137 30 -53 42 -154 24 -220
-16 -57 -67 -121 -126 -158 -44 -27 -56 -30 -134 -30 -101 0 -145 19 -205 85
-49 54 -64 93 -77 192 -12 98 -34 143 -95 197 -105 92 -253 92 -357 1 -59 -52
-84 -106 -96 -207 -12 -96 -36 -148 -92 -203 -95 -92 -261 -94 -367 -5 -113
95 -124 289 -22 394 54 56 107 80 201 92 100 12 165 44 211 101 44 54 55 84
68 183 13 99 40 155 95 200 62 51 107 65 196 62 61 -3 86 -9 122 -30z"/>
<path d="M3631 3621 c-46 -12 -109 -58 -147 -109 -75 -97 -64 -250 25 -341
122 -125 338 -97 427 55 35 60 43 151 20 222 -20 60 -88 136 -141 158 -44 18
-139 26 -184 15z"/>
<path d="M4650 3698 c-44 -30 -80 -92 -80 -138 0 -50 32 -113 71 -141 50 -35
142 -39 189 -7 99 67 108 190 21 273 -27 25 -41 30 -99 33 -58 3 -72 0 -102
-20z"/>
</g>
</svg>
